# xmcd CD database file
#
# Track frame offsets:
#	150
#	17458
#	33475
#	53425
#	76975
#	88183
#	103450
#	128900
#	144828
#	158390
#
# Disc length: 2261 seconds
#
# Revision: 2
# Processed by: cddbd v1.4PL0 Copyright (c) Steve Scherf et al.
# Submitted via: CDex 1.40Beta9
#
DISCID=7008d30a
DTITLE=Konstantin Wecker - Brecht
DYEAR=1900
DGENRE=
TTITLE0=Choral vom Baal
TTITLE1=Oh, die unerhörten Möglichkeiten
TTITLE2=Das Schiff
TTITLE3=Ballade vom Mazeppa
TTITLE4=Wenn sie trinkt, fällt sie in jedes Bett
TTITLE5=Erinnerung an die Marie A.
TTITLE6=Vom Schwimmen in Seen und Flüssen
TTITLE7=In den Zeiten der äußersten Verfolgung
TTITLE8=Liebeslied
TTITLE9=Vom Glück des Gebens
EXTD=BMG 74321 542 742\n1998
EXTT0=
EXTT1=
EXTT2=
EXTT3=
EXTT4=
EXTT5=
EXTT6=
EXTT7=
EXTT8=
EXTT9=
PLAYORDER=
